<svg width="50" height="50" viewBox="0 0 50 50" fill="none" xmlns="http://www.w3.org/2000/svg">
<path d="M25.0003 4.16663C20.8799 4.16663 16.852 5.38848 13.426 7.67768C9.99993 9.96687 7.32967 13.2206 5.75284 17.0274C4.17602 20.8342 3.76345 25.0231 4.56731 29.0643C5.37117 33.1056 7.35535 36.8178 10.2689 39.7313C13.1825 42.6449 16.8947 44.6291 20.936 45.433C24.9772 46.2368 29.1661 45.8243 32.9729 44.2475C36.7797 42.6706 40.0334 40.0004 42.3226 36.5743C44.6118 33.1483 45.8337 29.1204 45.8337 25C45.8337 22.2641 45.2948 19.555 44.2478 17.0274C43.2009 14.4998 41.6663 12.2031 39.7317 10.2686C37.7972 8.33401 35.5005 6.79944 32.9729 5.75247C30.4453 4.7055 27.7362 4.16663 25.0003 4.16663ZM33.9587 20.0208L24.4378 32.5208C24.2438 32.7729 23.9945 32.9772 23.7092 33.1181C23.4239 33.2589 23.1102 33.3325 22.792 33.3333C22.4756 33.335 22.1629 33.2646 21.8777 33.1274C21.5925 32.9902 21.3424 32.7899 21.1462 32.5416L16.0628 26.0625C15.8946 25.8463 15.7705 25.5992 15.6978 25.3351C15.6251 25.071 15.6051 24.7952 15.6389 24.5234C15.6728 24.2516 15.7598 23.9891 15.8951 23.751C16.0304 23.5128 16.2113 23.3036 16.4274 23.1354C16.8639 22.7956 17.4175 22.6431 17.9665 22.7114C18.2383 22.7453 18.5007 22.8324 18.7389 22.9677C18.9771 23.1029 19.1862 23.2838 19.3545 23.5L22.7503 27.8333L30.6253 17.4166C30.7922 17.1978 31.0006 17.0139 31.2385 16.8756C31.4765 16.7372 31.7393 16.6471 32.0121 16.6103C32.2849 16.5736 32.5622 16.5909 32.8283 16.6613C33.0944 16.7318 33.344 16.8539 33.5628 17.0208C33.7817 17.1877 33.9656 17.396 34.1039 17.634C34.2422 17.8719 34.3324 18.1348 34.3691 18.4076C34.4059 18.6803 34.3886 18.9577 34.3181 19.2238C34.2477 19.4898 34.1256 19.7394 33.9587 19.9583V20.0208Z" fill="#8D8F8E"/>
</svg>
