<svg width="32" height="32" viewBox="0 0 32 32" fill="none" xmlns="http://www.w3.org/2000/svg">
<path d="M15.998 0.286743C7.16401 0.286743 9.23295e-06 7.47874 9.23295e-06 16.3507C-0.00360001 19.7178 1.05104 23.0009 3.01487 25.736C4.9787 28.4711 7.75242 30.5198 10.944 31.5927C11.744 31.7407 12.036 31.2447 12.036 30.8187C12.036 30.4367 12.022 29.4267 12.014 28.0867C7.56401 29.0567 6.62401 25.9327 6.62401 25.9327C5.89801 24.0767 4.84801 23.5827 4.84801 23.5827C3.39401 22.5867 4.95601 22.6067 4.95601 22.6067C6.56201 22.7207 7.406 24.2627 7.406 24.2627C8.834 26.7167 11.152 26.0087 12.064 25.5967C12.208 24.5587 12.622 23.8507 13.08 23.4487C9.528 23.0427 5.79201 21.6647 5.79201 15.5107C5.79201 13.7567 6.41601 12.3227 7.44 11.1987C7.274 10.7927 6.72601 9.15874 7.596 6.94874C7.596 6.94874 8.94 6.51674 11.996 8.59474C13.3015 8.23796 14.6486 8.05637 16.002 8.05474C17.3554 8.05743 18.7025 8.23968 20.008 8.59674C23.062 6.51874 24.404 6.95074 24.404 6.95074C25.276 9.16274 24.728 10.7947 24.564 11.2007C25.59 12.3247 26.208 13.7587 26.208 15.5127C26.208 21.6827 22.468 23.0407 18.904 23.4387C19.478 23.9347 19.99 24.9147 19.99 26.4127C19.99 28.5607 19.97 30.2927 19.97 30.8187C19.97 31.2487 20.258 31.7487 21.07 31.5907C24.2585 30.5153 27.0287 28.4658 28.9899 25.7313C30.951 22.9969 32.0039 19.7157 32 16.3507C32 7.47874 24.836 0.286743 15.998 0.286743Z" fill="#D3F36B"/>
</svg>
