<svg width="24" height="24" viewBox="0 0 24 24" fill="none" xmlns="http://www.w3.org/2000/svg">
<path fill-rule="evenodd" clip-rule="evenodd" d="M15.694 5.306C15.286 4.898 14.624 4.898 14.216 5.306L8.30303 11.206C8.19549 11.3129 8.11266 11.4421 8.06031 11.5845C8.00797 11.7268 7.98739 11.8789 8.00003 12.03C7.99678 12.171 8.02223 12.3111 8.07484 12.4419C8.12744 12.5728 8.2061 12.6915 8.30603 12.791L14.216 18.695C14.4121 18.8908 14.6779 19.0007 14.955 19.0007C15.2321 19.0007 15.4979 18.8908 15.694 18.695C15.791 18.5981 15.868 18.4831 15.9205 18.3565C15.973 18.2298 16 18.0941 16 17.957C16 17.8199 15.973 17.6842 15.9205 17.5575C15.868 17.4309 15.791 17.3159 15.694 17.219L10.467 11.999L15.694 6.782C15.791 6.68521 15.8679 6.57026 15.9204 6.44371C15.9729 6.31716 15.9999 6.1815 15.9999 6.0445C15.9999 5.9075 15.9729 5.77184 15.9204 5.64529C15.8679 5.51874 15.791 5.40378 15.694 5.307L15.694 5.306Z" fill="#24282C"/>
</svg>
