<svg width="24" height="24" viewBox="0 0 24 24" fill="none" xmlns="http://www.w3.org/2000/svg">
<path d="M19.5676 6.00754C21.8026 6.10504 23.1076 7.41004 23.2501 9.66004V18C23.2642 18.4881 23.18 18.974 23.0027 19.4289C22.8253 19.8839 22.5584 20.2985 22.2177 20.6483C21.8771 20.9981 21.4696 21.2758 21.0195 21.4651C20.5694 21.6543 20.0859 21.7512 19.5976 21.75H4.40259C3.91719 21.7594 3.43494 21.6701 2.98509 21.4874C2.53525 21.3048 2.12718 21.0328 1.78564 20.6877C1.4441 20.3427 1.17621 19.9318 0.998199 19.4801C0.820192 19.0285 0.735783 18.5453 0.750093 18.06V6.00004C0.847593 3.66004 2.25009 2.25004 4.50009 2.25004H7.69509C8.25409 2.20279 8.81663 2.27908 9.34286 2.4735C9.86908 2.66791 10.3461 2.9757 10.7401 3.37504C11.1038 3.7631 11.3958 4.21255 11.6026 4.70254C11.6276 4.75874 11.6392 4.81997 11.6365 4.88141C11.6338 4.94285 11.6169 5.00282 11.587 5.05661C11.5572 5.11041 11.5154 5.15655 11.4647 5.19142C11.414 5.22628 11.356 5.24892 11.2951 5.25754L8.25009 6.00754H19.5676Z" fill="#9B51E0"/>
</svg>
