<svg width="24" height="24" viewBox="0 0 24 24" fill="none" xmlns="http://www.w3.org/2000/svg">
<path d="M11.8674 4.00519C12.5252 3.95074 13.0415 4.33319 13.4632 4.76043C14.1419 5.38833 14.7718 6.08034 15.5122 6.64238C16.124 7.01693 16.8073 6.76357 16.9901 6.09615C17.0258 4.75209 18.2416 3.66094 19.6338 4.36349C21.1066 4.98217 21.2355 7.18115 19.5224 7.62068C18.5826 7.71377 17.5519 8.06987 18.154 9.1316C18.8799 10.1468 20.6636 11.1444 20.9906 12.2751C21.0463 12.7932 20.8528 13.2867 20.4557 13.6525C19.6124 14.3748 18.9101 15.2798 17.9615 15.8774C17.479 16.1083 16.9521 15.9389 16.7229 15.4747C16.5021 14.9109 16.5619 14.24 16.0503 13.8027C14.9824 12.6681 12.9585 13.6499 12.8453 15.0163C12.6918 16.1558 13.7587 16.846 14.8576 16.8943C15.5906 17.0577 15.8703 17.7229 15.4602 18.3205C14.7792 19.1113 13.9452 19.7827 13.1983 20.519C12.8017 20.8888 12.3285 21.0596 11.764 20.9814C10.7513 20.833 9.68024 19.2988 8.84154 18.6542C8.0098 17.7804 6.95493 18.1532 6.922 19.3247C6.50451 21.7959 2.90385 20.8945 3.21883 18.6402C3.42108 17.5459 4.40127 17.3308 5.39722 17.1622C7.49025 16.1531 3.46747 14.1737 3.12884 13.0198C2.09113 11.1396 7.73101 9.25279 5.47283 7.86921C5.28218 7.78534 5.06137 7.74538 4.84984 7.72562C2.76191 7.53286 2.67099 4.95758 4.48244 4.30904C5.67555 3.76983 6.95169 4.75296 6.95447 5.92973C7.00642 6.52119 7.48469 6.91154 8.05897 6.82724C9.27713 6.53085 10.5412 4.12901 11.8674 4.00519Z" fill="#24282C"/>
</svg>
