<svg width="50" height="50" viewBox="0 0 50 50" fill="none" xmlns="http://www.w3.org/2000/svg">
<path d="M6.25 20.8333V29.1666C6.25 30.3124 7.1875 31.2499 8.33333 31.2499H14.5833L21.4375 38.1041C22.75 39.4166 25 38.4791 25 36.6249V13.3541C25 11.4999 22.75 10.5624 21.4375 11.8749L14.5833 18.7499H8.33333C7.1875 18.7499 6.25 19.6874 6.25 20.8333ZM34.375 24.9999C34.375 21.3124 32.25 18.1458 29.1667 16.6041V33.3749C32.25 31.8541 34.375 28.6874 34.375 24.9999ZM29.1667 9.27077V9.68743C29.1667 10.4791 29.6875 11.1666 30.4167 11.4583C35.7917 13.6041 39.5833 18.8749 39.5833 24.9999C39.5833 31.1249 35.7917 36.3958 30.4167 38.5416C29.6667 38.8333 29.1667 39.5208 29.1667 40.3124V40.7291C29.1667 42.0416 30.4792 42.9583 31.6875 42.4999C38.75 39.8124 43.75 32.9999 43.75 24.9999C43.75 16.9999 38.75 10.1874 31.6875 7.49993C30.4792 7.02077 29.1667 7.95827 29.1667 9.27077Z" fill="#24282C"/>
</svg>
