<svg width="101" height="100" viewBox="0 0 101 100" fill="none" xmlns="http://www.w3.org/2000/svg">
<circle cx="50.5002" cy="49.9999" r="29.1667" fill="#24282C"/>
<path d="M50.5002 8.33325C42.2593 8.33325 34.2035 10.777 27.3514 15.3554C20.4994 19.9337 15.1589 26.4412 12.0052 34.0548C8.85155 41.6684 8.02641 50.0461 9.63413 58.1287C11.2418 66.2112 15.2102 73.6355 21.0374 79.4627C26.8646 85.2899 34.2889 89.2583 42.3714 90.866C50.454 92.4737 58.8317 91.6486 66.4453 88.4949C74.0589 85.3412 80.5663 80.0007 85.1447 73.1487C89.7231 66.2966 92.1668 58.2408 92.1668 49.9999C92.1668 44.5282 91.0891 39.11 88.9952 34.0548C86.9012 28.9995 83.8321 24.4062 79.963 20.5371C76.0939 16.668 71.5006 13.5989 66.4453 11.5049C61.3901 9.41099 55.9719 8.33325 50.5002 8.33325V8.33325ZM68.4168 40.0416L49.3752 65.0416C48.987 65.5458 48.4885 65.9544 47.9179 66.2361C47.3474 66.5178 46.7198 66.6651 46.0835 66.6666C45.4506 66.67 44.8253 66.5292 44.2549 66.2548C43.6846 65.9805 43.1842 65.5798 42.7918 65.0832L32.6252 52.1249C32.2887 51.6927 32.0406 51.1983 31.8951 50.6702C31.7496 50.1421 31.7096 49.5904 31.7773 49.0468C31.845 48.5032 32.0192 47.9783 32.2897 47.5019C32.5603 47.0256 32.9221 46.6073 33.3543 46.2707C34.2274 45.5911 35.3346 45.2862 36.4324 45.4229C36.9761 45.4906 37.501 45.6647 37.9773 45.9353C38.4536 46.2059 38.872 46.5676 39.2085 46.9999L46.0002 55.6666L61.7502 34.8332C62.084 34.3955 62.5007 34.0278 62.9766 33.7511C63.4525 33.4744 63.9782 33.2942 64.5237 33.2207C65.0693 33.1472 65.6239 33.1818 66.1561 33.3227C66.6882 33.4635 67.1874 33.7078 67.6252 34.0416C68.0629 34.3754 68.4306 34.7921 68.7073 35.268C68.984 35.7439 69.1643 36.2696 69.2378 36.8151C69.3113 37.3607 69.2766 37.9154 69.1358 38.4475C68.9949 38.9796 68.7506 39.4788 68.4168 39.9166V40.0416Z" fill="#D3F36B"/>
</svg>
